<?xml version='1.0' encoding='utf-8'?>
<svg xmlns="http://www.w3.org/2000/svg" version="1.1" id="Layer_1" x="0px" y="0px" width="2323.055px" height="2270.191px" viewBox="0 0 2323.055 2270.191" enable-background="new 0 0 2323.055 2270.191"> <path fill="#D0EAFA" d="M90.986,1153.603c0-591.578,479.532-1071.182,1071.187-1071.182 c591.651,0,1071.258,479.604,1071.258,1071.182s-479.606,1071.228-1071.258,1071.228 C570.518,2224.831,90.986,1745.18,90.986,1153.603z"/> <path fill="#C0D9E8" d="M591.172,1593.721l727.614,619.598c472.876-69.283,845.118-447.521,905.69-923.133L1456.171,547.17 l-45.955,58.531l-175.715-140.631L591.172,1593.721z"/> <g> <g> <polygon fill="#3E8359" points="1234.881,464.762 1234.498,465.068 1169.363,513.187 736.513,832.999 742.658,841.328 840.746,820.98 854.921,818.032 984.933,791.07 1042.389,779.144 1066.071,774.234 1177.92,751.035 1191.962,748.107 1271.251,731.662 1271.726,731.561 1292.643,832.353 1350.396,789.69 1363.831,779.751 1430.583,730.432 1430.96,730.158 "/> <path fill="#FFFFFF" d="M1282.001,860.182l-22.738-109.623l-523.408,108.58l-21.786-29.51l524.212-387.284l215.114,291.131 l-13.24,9.833L1282.001,860.182z M1231.521,487.219L786.878,815.755l497.3-103.198l19.092,91.99l105.234-77.766L1231.521,487.219z "/> </g> <g> <g> <path fill="#FDFEFF" d="M1046.916,740.635l-10.529-14.258l8.988-6.646l10.19,13.846c8.637-5.952,16.157-7.985,22.226-8.705 l3.385,12.034c-4.241,0.503-12.508,1.542-21.636,8.293c-10.974,8.09-9.344,17.057-5.029,22.885 c2.922,3.935,6.411,5.82,11.559,6.15l111.85-23.199c-3.211-9.862-7.953-19.43-14.463-28.213 c-32.504-44.006-94.797-53.375-138.815-20.858c-28.937,21.374-42.771,55.625-39.708,89.101l57.457-11.92 C1033.829,767.365,1035.584,752.292,1046.916,740.635z"/> <path fill="#FDFEFF" d="M1334.933,759.125c-9.314-12.579-13.124-27.959-10.806-43.399c4.413-29.365,30.142-50.095,59.052-49.438 l47.404,64.144l0.375-0.274L1234.88,464.759l-0.384,0.309l48.715,65.919c-8.09,27.482-35.281,45.616-64.405,41.26 c-15.424-2.372-29.04-10.517-38.293-23.064c-7.784-10.507-11.459-23.127-11.152-35.996L736.513,832.999l6.145,8.329l0,0 l-6.141-8.329l65.13-48.104c12.435,3.466,23.354,10.717,31.134,21.238c3.404,4.611,6.056,9.609,7.965,14.849l14.175-2.95 c-2.386-7.238-5.875-14.144-10.544-20.461c-7.568-10.23-17.591-17.841-28.921-22.878l340.106-251.305 c1.502,12.297,5.83,24.135,13.409,34.343c11.56,15.641,28.494,25.849,47.705,28.706c19.813,2.98,39.062-2.353,54.047-13.44 c9.759-7.199,17.454-17.002,22.595-28.333l79.675,107.843c-31.543,3.945-58.114,28.159-63.067,61.073 c-2.883,19.264,1.882,38.473,13.418,54.079c7.163,9.676,16.534,16.973,27.056,22.035l13.431-9.939 C1352.325,776.033,1342.226,769.005,1334.933,759.125z"/> <path fill="#3E8359" d="M832.781,806.131c-7.78-10.524-18.699-17.772-31.134-21.241l-65.13,48.106l6.141,8.328l98.088-20.346 C838.834,815.74,836.186,810.742,832.781,806.131z"/> <polygon fill="#3E8359" points="1159.984,530.434 1225.106,482.302 1225.106,482.302 "/> <path fill="#3E8359" d="M1180.514,549.185c9.253,12.545,22.87,20.69,38.294,23.066c29.124,4.353,56.315-13.778,64.405-41.26 l-48.715-65.922l-65.137,48.12C1169.058,526.056,1172.73,538.675,1180.514,549.185z"/> <path fill="#3E8359" d="M1383.179,666.29c-28.91-0.659-54.639,20.07-59.052,49.437c-2.321,15.44,1.489,30.821,10.806,43.401 c7.293,9.878,17.393,16.904,28.898,20.624l66.755-49.319L1383.179,666.29z"/> <path fill="#3E8359" d="M1323.343,767.658c-11.534-15.607-16.3-34.817-13.418-54.08c4.953-32.914,31.524-57.129,63.07-61.074 l-79.678-107.843c-5.141,11.333-12.834,21.136-22.594,28.335c-14.986,11.083-34.234,16.421-54.048,13.44 c-19.212-2.857-36.146-13.065-47.705-28.706c-7.577-10.208-11.907-22.046-13.409-34.343L815.456,774.694 c11.332,5.036,21.355,12.646,28.923,22.876c4.67,6.315,8.157,13.225,10.544,20.463l130.012-26.964 c-3.061-33.476,10.774-67.727,39.708-89.101c44.02-32.518,106.311-23.15,138.818,20.86c6.51,8.783,11.248,18.349,14.459,28.212 l14.042-2.928l79.289-16.446l0.475-0.1l20.917,100.791l57.753-42.662C1339.877,784.629,1330.506,777.334,1323.343,767.658z"/> <path fill="#3E8359" d="M1054.512,768.083c-4.315-5.828-5.947-14.795,5.029-22.885c9.128-6.752,17.393-7.79,21.635-8.293 l-3.384-12.034c-6.067,0.72-13.589,2.753-22.226,8.705l-10.19-13.846l-8.986,6.646l10.529,14.258 c-11.333,11.657-13.088,26.73-4.528,38.512l23.683-4.909C1060.923,773.907,1057.434,772.019,1054.512,768.083z"/> </g> </g> <g> <polygon fill="#3E8359" points="1456.638,546.992 1456.171,547.17 1380.675,576.453 878.904,771.069 882.654,780.716 982.643,786.898 997.094,787.804 1129.618,795.994 1188.178,799.606 1212.314,801.118 1326.326,808.168 1340.652,809.063 1421.467,814.05 1421.956,814.085 1415.595,916.825 1482.551,890.855 1498.12,884.814 1575.497,854.805 1575.942,854.627 "/> <path fill="#FFFFFF" d="M1398.016,940.861l6.904-111.732l-533.538-33.027l-13.231-34.208l607.652-235.627l130.914,337.496 l-15.397,5.993L1398.016,940.861z M932.038,767.681l506.928,31.333l-5.807,93.767l122.022-47.323l-107.721-277.69L932.038,767.681 z"/> </g> <g> <g> <path fill="#FDFEFF" d="M1202.68,763.66l-6.409-16.539l10.429-4.041l6.171,16.043c9.913-3.477,17.702-3.447,23.748-2.542 l0.087,12.49c-4.223-0.615-12.456-1.795-23.043,2.305c-12.713,4.924-13.505,13.993-10.873,20.77 c1.787,4.568,4.642,7.295,9.527,8.972l114.014,7.05c-0.494-10.372-2.563-20.828-6.521-31.014 c-19.774-51.017-77.415-76.452-128.425-56.667c-33.545,12.99-55.916,42.421-61.763,75.506l58.56,3.612 C1183.012,785.993,1188.68,771.907,1202.68,763.66z"/> <path fill="#FDFEFF" d="M1475.669,857.305c-5.663-14.583-5.306-30.43,1.008-44.714c11.978-27.152,42.264-40.385,69.974-32.143 l28.846,74.358l0.446-0.178L1456.64,546.992l-0.467,0.178l29.66,76.432c-15.058,24.397-46.045,34.704-73,22.834 c-14.253-6.323-25.242-17.78-30.876-32.298c-4.742-12.208-4.964-25.333-1.281-37.683L878.905,771.073l3.75,9.646l0,0 l-3.743-9.646l75.514-29.278c11.058,6.616,19.695,16.487,24.424,28.695c2.076,5.336,3.33,10.858,3.792,16.413l14.451,0.905 c-0.414-7.618-1.961-15.214-4.803-22.531c-4.594-11.862-12.275-21.838-21.853-29.681l394.238-152.915 c-1.793,12.257-0.71,24.808,3.896,36.663c7.039,18.108,20.683,32.433,38.465,40.249c18.331,8.082,38.308,8.017,55.689,1.256 c11.296-4.378,21.31-11.81,29.252-21.389l48.493,125.033c-31.486-4.52-63.487,11.847-76.938,42.307 c-7.85,17.819-8.313,37.599-1.289,55.694c4.363,11.216,11.506,20.713,20.309,28.371l15.57-6.039 C1487.992,878.2,1480.112,868.763,1475.669,857.305z"/> <path fill="#3E8359" d="M978.851,770.486c-4.729-12.204-13.366-22.075-24.424-28.693l-75.514,29.277l3.743,9.646l99.991,6.182 C982.179,781.348,980.926,775.822,978.851,770.486z"/> <polygon fill="#3E8359" points="1366.614,590.697 1442.115,561.404 1442.115,561.404 "/> <path fill="#3E8359" d="M1381.956,614.138c5.633,14.518,16.623,25.975,30.876,32.298c26.954,11.87,57.942,1.566,72.998-22.834 l-29.659-76.432l-75.495,29.285C1376.988,588.803,1377.211,601.927,1381.956,614.138z"/> <path fill="#3E8359" d="M1546.65,780.447c-27.71-8.242-57.996,4.991-69.974,32.143c-6.313,14.288-6.671,30.129-1.007,44.714 c4.442,11.457,12.322,20.895,22.45,27.509l77.377-30.009L1546.65,780.447z"/> <path fill="#3E8359" d="M1462.241,862.486c-7.023-18.096-6.56-37.877,1.29-55.695c13.451-30.458,45.452-46.826,76.938-42.306 l-48.492-125.034c-7.943,9.58-17.958,17.012-29.252,21.389c-17.382,6.76-37.359,6.826-55.692-1.256 c-17.779-7.813-31.425-22.137-38.463-40.249c-4.605-11.854-5.688-24.406-3.896-36.662L970.437,735.59 c9.577,7.844,17.259,17.819,21.852,29.682c2.845,7.32,4.391,14.916,4.804,22.532l132.525,8.189 c5.846-33.085,28.214-62.513,61.761-75.506c51.009-19.786,108.65,5.651,128.423,56.667c3.96,10.186,6.03,20.641,6.524,31.014 l14.325,0.898l80.813,4.985l0.487,0.035l-6.361,102.74l66.958-25.968C1473.748,883.2,1466.605,873.702,1462.241,862.486z"/> <path fill="#3E8359" d="M1202.786,792.146c-2.631-6.772-1.839-15.844,10.874-20.77c10.589-4.1,18.819-2.92,23.042-2.305 l-0.085-12.49c-6.045-0.907-13.835-0.935-23.749,2.542l-6.171-16.043l-10.428,4.041l6.409,16.539 c-14.002,8.248-19.67,22.333-14.504,35.946l24.135,1.512C1207.428,799.441,1204.575,796.714,1202.786,792.146z"/> </g> </g> <g> <g> <path fill="#432120" d="M570.684,772.887c-1.766,3.495-2.775,7.499-2.775,11.752v33.316h64.435L570.684,772.887z"/> <polygon fill="#1F4763" points="632.341,817.956 567.906,817.956 567.906,1560.306 1647.682,1560.306 "/> <path fill="#0B253E" d="M1681.685,817.956v-33.316c0-13.695-10.42-24.811-23.264-24.811H591.172 c-8.859,0-16.559,5.282-20.489,13.059l61.658,45.068H1681.685z"/> <polygon fill="#215A79" points="1647.682,1560.306 1681.685,1560.306 1681.685,817.956 632.341,817.956 "/> <path fill="#0B253E" d="M1647.682,1560.306H567.906v8.607c0,13.702,10.418,24.808,23.265,24.808h1067.25 c8.186,0,15.348-4.505,19.502-11.313c2.362-3.878,3.762-8.51,3.762-13.494v-8.607H1647.682z"/> </g> <path fill="#0B253E" d="M1740.87,1251.924c0,13.695-11.116,24.794-24.802,24.794H1377.3c-13.707,0-24.818-11.099-24.818-24.794 v-150.288c0-13.696,11.109-24.811,24.818-24.811h338.769c13.686,0,24.802,11.114,24.802,24.811V1251.924z"/> <path fill="#D5D4D2" d="M1489.52,1175.892c0,28.712-23.263,51.966-51.955,51.966c-28.709,0-51.982-23.252-51.982-51.966 c0-28.701,23.273-51.971,51.982-51.971C1466.257,1123.921,1489.52,1147.189,1489.52,1175.892z"/> </g> </g> </svg>